#!OML:ASF E:\CV Data\Top Level 1\Subject 1\Session 1\player.ASF
:FULLY-SPECIFIED
:DEGREES
1223
root -3.24918 17.2483 2.55773 1.7226 -7.76602 -5.03133
lowerback 10.2195 0.715775 2.5576
upperback 0.477131 1.50238 4.76984
thorax -5.3087 0.733024 3.34053
lowerneck -20.2786 -9.64283 -12.9411
upperneck 15.1397 -12.4885 14.4401
head 9.9351 -5.1299 5.24409
rclavicle 9.93923e-017 4.77083e-014
rhumerus 326.66 338.983 646.362
rradius 18.6117
rwrist 3.52483
rhand -26.7962 0.70459
rfingers 7.12502
rthumb -0.223267 -29.275
lclavicle 9.93923e-017 4.77083e-014
lhumerus -33.2858 4.24868 88.2041
lradius 42.4372
lwrist -10.0848
lhand -10.2412 3.35983
lfingers 7.12502
lthumb 15.7514 32.7389
rfemur -13.7171 5.6708 24.934
rtibia 38.8071
rfoot -24.2295 -11.9624
rtoes 1.29049
lfemur -20.2426 9.32785 -12.486
ltibia 50.2126
lfoot -23.2358 -1.51335
ltoes -16.8165
1224
root -3.2556 17.2466 2.54646 1.83988 -7.85469 -4.98594
lowerback 10.0962 0.632857 2.51883
upperback 0.447266 1.3855 4.83285
thorax -5.26877 0.677262 3.44704
lowerneck -20.3522 -9.51782 -12.7741
upperneck 15.2556 -12.3224 14.2411
head 9.9361 -5.05838 5.17569
rclavicle -6.16232e-015 -1.66979e-014
rhumerus 325.163 336.035 648.908
rradius 17.338
rwrist 4.60398
rhand -27.1003 0.371909
rfingers 7.12502
rthumb -0.517005 -29.6072
lclavicle -6.16232e-015 -1.66979e-014
lhumerus -33.4447 3.91665 88.3033
lradius 42.8411
lwrist -9.22192
lhand -10.8067 3.62959
lfingers 7.12502
lthumb 15.2067 33.0507
rfemur -13.9656 5.64139 24.8751
rtibia 38.9464
rfoot -24.2833 -11.7807
rtoes 1.35083
lfemur -19.9192 9.40262 -12.8917
ltibia 49.7228
lfoot -23.5019 -1.58472
ltoes -17.0357
1225
root -3.26151 17.2451 2.53627 1.96252 -7.9223 -4.95398
lowerback 9.96514 0.550556 2.48055
upperback 0.409142 1.26989 4.90199
thorax -5.23289 0.622181 3.55932
lowerneck -20.3954 -9.39835 -12.6176
upperneck 15.3706 -12.1675 14.0543
head 9.93544 -4.99282 5.11194
rclavicle 3.55825e-014 2.3059e-014
rhumerus 323.514 333.354 651.593
rradius 16.301
rwrist 5.37416
rhand -27.1425 -0.127921
rfingers 7.12502
rthumb -0.55771 -30.1069
lclavicle 3.55825e-014 2.3059e-014
lhumerus -33.5937 3.58703 88.3904
lradius 43.1593
lwrist -8.53144
lhand -11.3184 3.83947
lfingers 7.12502
lthumb 14.7137 33.2973
rfemur -14.2071 5.60573 24.8303
rtibia 39.0712
rfoot -24.328 -11.6199
rtoes 1.39992
lfemur -19.5866 9.39548 -13.2626
ltibia 49.1355
lfoot -23.6936 -1.63043
ltoes -17.2354
1226
root -3.26705 17.2438 2.52708 2.08913 -7.96684 -4.93583
lowerback 9.82432 0.468721 2.44262
upperback 0.370508 1.15467 4.97573
thorax -5.19168 0.567314 3.6759
lowerneck -20.4322 -9.28673 -12.4635
upperneck 15.4828 -12.026 13.8792
head 9.93642 -4.93281 5.05032
rclavicle 8.84592e-015 0
rhumerus 321.75 330.949 654.375
rradius 15.4692
rwrist 5.95156
rhand -26.9295 -0.699702
rfingers 7.12502
rthumb -0.351984 -30.6792
lclavicle 8.84592e-015 0
lhumerus -33.7134 3.25883 88.4639
lradius 43.3933
lwrist -8.00893
lhand -11.7648 3.9889
lfingers 7.12502
lthumb 14.2836 33.4776
rfemur -14.4402 5.56732 24.8013
rtibia 39.1833
rfoot -24.3659 -11.4845
rtoes 1.45067
lfemur -19.2445 9.29554 -13.5952
ltibia 48.4559
lfoot -23.7757 -1.67417
ltoes -17.2764
1227
root -3.27226 17.2426 2.51902 2.21433 -7.98847 -4.93011
lowerback 9.67723 0.38452 2.40221
upperback 0.324888 1.0364 5.05521
thorax -5.15381 0.511058 3.80009
lowerneck -20.4312 -9.17834 -12.324
upperneck 15.5912 -11.893 13.7226
head 9.93346 -4.87743 4.99698
rclavicle -8.94531e-016 -3.49861e-014
rhumerus 319.896 328.912 657.177
rradius 14.8322
rwrist 6.4276
rhand -26.4896 -1.33545
rfingers 7.12502
rthumb 0.0728474 -31.3152
lclavicle -8.94531e-016 -3.49861e-014
lhumerus -33.8251 2.93926 88.5232
lradius 43.5536
lwrist -7.6435
lhand -12.156 4.06955
lfingers 7.12502
lthumb 13.9067 33.5845
rfemur -14.6575 5.52814 24.7879
rtibia 39.2815
rfoot -24.3967 -11.3759
rtoes 1.50681
lfemur -18.8899 9.09499 -13.8892
ltibia 47.6918
lfoot -23.7188 -1.74017
ltoes -16.8591
1228
root -3.27705 17.2414 2.5125 2.33126 -7.98613 -4.93486
lowerback 9.53146 0.299062 2.35818
upperback 0.277445 0.916496 5.13937
thorax -5.1181 0.454112 3.93121
lowerneck -20.4201 -9.0758 -12.2004
upperneck 15.7061 -11.7712 13.5913
head 9.93614 -4.82593 4.95352
rclavicle -9.74045e-015 5.725e-014
rhumerus 318.031 327.3 659.881
rradius 14.3728
rwrist 6.84226
rhand -25.8706 -2.02321
rfingers 7.12502
rthumb 0.670679 -32.0019
lclavicle -9.74045e-015 5.725e-014
lhumerus -33.9215 2.62674 88.5707
lradius 43.6477
lwrist -7.40398
lhand -12.5345 4.04261
lfingers 7.12502
lthumb 13.5419 33.5823
rfemur -14.8494 5.49362 24.7881
rtibia 39.3637
rfoot -24.4236 -11.2971
rtoes 1.56606
lfemur -18.5191 8.79555 -14.1459
ltibia 46.8554
lfoot -23.5185 -1.8254
ltoes -15.778
1229
root -3.28166 17.2406 2.50709 2.4414 -7.97423 -4.95081
lowerback 9.38437 0.214638 2.3082
upperback 0.228257 0.797552 5.22742
thorax -5.08307 0.397807 4.06936
lowerneck -20.3884 -8.97781 -12.0944
upperneck 15.8254 -11.6596 13.4868
head 9.94163 -4.77823 4.92126
rclavicle -3.16068e-014 -5.40694e-014
rhumerus 316.228 326.15 662.379
rradius 14.07
rwrist 7.24084
rhand -25.1134 -2.71405
rfingers 7.12502
rthumb 1.402 -32.6892
lclavicle -3.16068e-014 -5.40694e-014
lhumerus -34.0021 2.32777 88.601
lradius 43.6754
lwrist -7.28611
lhand -12.8111 3.98926
lfingers 7.12502
lthumb 13.2753 33.5465
rfemur -15.0168 5.47059 24.8032
rtibia 39.4261
rfoot -24.4429 -11.2388
rtoes 1.63342
lfemur -18.1367 8.40825 -14.3636
ltibia 45.9643
lfoot -23.1901 -1.8759
ltoes -13.9779
1230
root -3.28608 17.2405 2.50277 2.54565 -7.95702 -4.97617
lowerback 9.24009 0.13522 2.25016
upperback 0.17541 0.68491 5.31717
thorax -5.05332 0.344834 4.21279
lowerneck -20.3429 -8.88735 -12.0062
upperneck 15.9555 -11.563 13.4118
head 9.95425 -4.73586 4.90028
rclavicle 2.04748e-014 -2.8625e-014
rhumerus 314.563 325.475 664.559
rradius 13.9034
rwrist 7.59514
rhand -24.2472 -3.32088
rfingers 7.12502
rthumb 2.23861 -33.2889
lclavicle 2.04748e-014 -2.8625e-014
lhumerus -34.069 2.03537 88.6161
lradius 43.6451
lwrist -7.26522
lhand -12.981 3.92431
lfingers 7.12502
lthumb 13.1115 33.4921
rfemur -15.1607 5.4647 24.8312
rtibia 39.4671
rfoot -24.4522 -11.2033
rtoes 1.6948
lfemur -17.751 7.94773 -14.5452
ltibia 45.0411
lfoot -22.7671 -1.79538
ltoes -11.6529
1231
root -3.29032 17.2411 2.49944 2.64577 -7.94506 -5.01336
lowerback 9.09619 0.0618339 2.18606
upperback 0.120112 0.579997 5.40947
thorax -5.02626 0.295859 4.36109
lowerneck -20.274 -8.80279 -11.9266
upperneck 16.0882 -11.4781 13.3507
head 9.96701 -4.69893 4.88411
rclavicle 1.0138e-014 -3.89618e-014
rhumerus 313.069 325.187 666.421
rradius 13.8322
rwrist 7.95813
rhand -23.3054 -3.78657
rfingers 7.12502
rthumb 3.14814 -33.7431
lclavicle 1.0138e-014 -3.89618e-014
lhumerus -34.1213 1.75912 88.6148
lradius 43.5596
lwrist -7.32489
lhand -13.0248 3.87412
lfingers 7.12502
lthumb 13.0693 33.4446
rfemur -15.2844 5.48108 24.8746
rtibia 39.487
rfoot -24.4507 -11.1866
rtoes 1.7594
lfemur -17.3689 7.43501 -14.6895
ltibia 44.1116
lfoot -22.2993 -1.49281
ltoes -9.15354
1232
root -3.29443 17.2422 2.49679 2.74357 -7.94188 -5.0593
lowerback 8.95096 -0.00284712 2.1151
upperback 0.06642 0.485753 5.49974
thorax -4.99684 0.252273 4.50941
lowerneck -20.2018 -8.72649 -11.8435
upperneck 16.2262 -11.4085 13.2966
head 9.98366 -4.66806 4.86731
rclavicle 9.74045e-015 -1.66979e-014
rhumerus 311.774 325.219 667.943
rradius 13.8341
rwrist 8.30209
rhand -22.3209 -4.08332
rfingers 7.12502
rthumb 4.09891 -34.0236
lclavicle 9.74045e-015 -1.66979e-014
lhumerus -34.1464 1.49274 88.5949
lradius 43.4202
lwrist -7.44742
lhand -12.9296 3.8555
lfingers 7.12502
lthumb 13.161 33.4201
rfemur -15.3941 5.52149 24.9297
rtibia 39.49
rfoot -24.4394 -11.1868
rtoes 1.82885
lfemur -16.9995 6.89592 -14.801
ltibia 43.202
lfoot -21.8515 -0.956795
ltoes -6.87635
1233
root -3.29835 17.2435 2.49468 2.83539 -7.94711 -5.11115
lowerback 8.81163 -0.0611752 2.0345
upperback 0.0107322 0.399474 5.58903
thorax -4.97285 0.212877 4.66105
lowerneck -20.141 -8.65603 -11.7474
upperneck 16.3863 -11.3497 13.2313
head 10.0101 -4.64161 4.84247
rclavicle 5.46658e-015 -2.46493e-014
rhumerus 310.683 325.531 669.133
rradius 13.8949
rwrist 8.56804
rhand -21.3324 -4.19626
rfingers 7.12502
rthumb 5.05343 -34.116
lclavicle 5.46658e-015 -2.46493e-014
lhumerus -34.1582 1.2445 88.559
lradius 43.2372
lwrist -7.61648
lhand -12.727 3.8385
lfingers 7.12502
lthumb 13.3564 33.3904
rfemur -15.4899 5.58013 24.9938
rtibia 39.4818
rfoot -24.4197 -11.2046
rtoes 1.89166
lfemur -16.6447 6.3589 -14.8843
ltibia 42.3363
lfoot -21.481 -0.268389
ltoes -5.1161
